<svg width="1920" height="877" viewBox="0 0 1920 877" fill="none" xmlns="http://www.w3.org/2000/svg">
<g opacity="0.7">
<g style="mix-blend-mode:overlay">
<g style="mix-blend-mode:overlay">
<path d="M-264.459 709.384C-113.826 861.289 43.069 923.953 178.912 940.992C317.808 958.761 434.987 929.501 525.27 910.255C655.055 875.241 693.918 895.703 745.379 914.679C794.739 931.184 856.698 946.212 983.98 843.355C1103.57 747.795 1236.62 577.259 1306.49 443.033C1355.22 350.879 1382.45 269.337 1396.4 194.492C1407.32 138.886 1430.73 89.5755 1459.5 78.9632C1506.14 60.6112 1550.66 33.1816 1566.31 3.45393C1573.65 -16.8351 1726.93 122.89 1909.39 321.906C2071.59 496.726 2258.35 721.416 2274.56 760.188" stroke="white" stroke-width="1.00132" stroke-miterlimit="10" stroke-linecap="round"/>
</g>
<g style="mix-blend-mode:overlay">
<path d="M-227.582 698.173C-81.3403 842.847 70.9915 902.54 202.878 918.75C337.72 935.682 451.493 907.818 539.108 889.482C665.118 856.135 702.848 875.628 752.816 893.693C800.731 909.418 860.893 923.724 984.465 825.767C1100.58 734.754 1229.75 572.343 1297.58 444.511C1344.88 356.739 1371.33 279.08 1384.87 207.806C1395.47 154.842 1418.2 107.887 1446.13 97.7755C1491.41 80.2934 1534.64 54.1687 1549.83 25.8692C1556.96 6.54865 1705.78 139.617 1882.9 329.162C2040.38 495.644 2221.69 709.647 2237.47 746.605" stroke="white" stroke-width="1.00132" stroke-miterlimit="10" stroke-linecap="round"/>
</g>
<g style="mix-blend-mode:overlay">
<path d="M-191.781 687.494C-49.791 825.282 98.0924 882.119 226.138 897.607C357.056 913.727 467.522 887.192 552.584 869.701C674.877 837.938 711.548 856.495 760.063 873.707C806.583 888.685 864.988 902.31 984.949 809.023C1097.68 722.335 1223.08 567.664 1288.94 445.914C1334.9 362.328 1360.54 288.329 1373.69 220.478C1383.99 170.042 1406.05 125.319 1433.16 115.692C1477.13 99.0471 1519.09 74.1618 1533.85 47.2083C1540.76 28.807 1685.25 155.548 1857.23 336.064C2010.13 494.609 2186.15 698.427 2201.44 733.629" stroke="white" stroke-width="1.00132" stroke-miterlimit="10" stroke-linecap="round"/>
</g>
<g style="mix-blend-mode:overlay">
<path d="M-157.021 677.333C-19.176 808.555 124.415 862.684 248.726 877.4C375.836 892.756 483.076 867.485 565.66 850.857C684.439 820.612 719.961 838.283 767.097 854.673C812.239 868.938 868.969 881.914 985.418 793.067C1094.86 710.508 1216.62 563.199 1280.56 447.251C1325.14 367.638 1350.07 297.201 1362.83 232.55C1372.84 184.512 1394.26 141.923 1420.58 132.755C1463.26 116.898 1504.01 93.2029 1518.33 67.5298C1525.05 50.0067 1665.32 170.707 1832.28 342.63C1980.72 493.648 2151.63 687.74 2166.46 721.26" stroke="white" stroke-width="1.00132" stroke-miterlimit="10" stroke-linecap="round"/>
</g>
<g style="mix-blend-mode:overlay">
<path d="M-123.28 667.648C10.5599 792.624 149.965 844.176 270.681 858.194C394.081 872.812 498.202 848.747 578.382 832.907C693.697 804.107 728.226 820.94 773.951 836.551C817.803 850.126 872.86 862.487 985.943 777.875C1092.21 699.247 1210.41 558.956 1272.49 448.524C1315.78 372.711 1339.97 305.622 1352.37 244.049C1362.08 198.301 1382.88 157.739 1408.43 149.006C1449.87 133.904 1489.43 111.334 1503.34 86.8834C1509.85 70.1975 1646.04 185.152 1808.14 348.884C1952.26 492.697 2118.19 677.563 2132.59 709.49" stroke="white" stroke-width="1.00132" stroke-miterlimit="10" stroke-linecap="round"/>
</g>
<g style="mix-blend-mode:overlay">
<path d="M-90.5166 658.424C39.425 777.433 174.767 826.547 291.954 839.9C411.784 853.853 512.852 830.872 590.709 815.819C702.667 788.382 736.187 804.419 780.582 819.283C823.154 832.218 876.61 843.988 986.402 763.406C1089.56 688.521 1204.33 554.935 1264.64 449.739C1306.67 377.513 1330.17 313.642 1342.2 254.999C1351.62 211.425 1371.81 172.792 1396.62 164.478C1436.84 150.098 1475.27 128.603 1488.77 105.318C1495.1 89.42 1627.31 198.884 1784.69 354.827C1924.61 491.786 2085.7 667.854 2099.7 698.255" stroke="white" stroke-width="1.00132" stroke-miterlimit="10" stroke-linecap="round"/>
</g>
<g style="mix-blend-mode:overlay">
<path d="M-58.7041 649.641C67.4456 763.003 198.848 809.761 312.613 822.475C428.938 835.738 527.076 813.906 602.659 799.543C711.351 773.41 743.894 788.684 787 802.826C828.333 815.137 880.221 826.357 986.82 749.608C1086.95 678.293 1198.4 551.035 1256.91 450.854C1297.72 382.083 1320.53 321.233 1332.21 265.364C1341.36 223.867 1360.94 187.072 1385.06 179.185C1424.12 165.487 1461.39 145.017 1474.52 122.84C1480.67 107.706 1609.03 211.974 1761.78 360.481C1897.63 490.924 2054.03 658.603 2067.61 687.56" stroke="white" stroke-width="1.00132" stroke-miterlimit="10" stroke-linecap="round"/>
</g>
<g style="mix-blend-mode:overlay">
<path d="M-27.8105 641.278C94.6704 749.239 222.24 793.774 332.689 805.88C445.624 818.511 540.906 797.721 614.281 784.039C719.813 759.154 751.412 773.698 793.254 787.183C833.389 798.911 883.767 809.589 987.256 736.493C1084.5 668.576 1192.68 547.383 1249.49 451.996C1289.1 386.499 1311.25 328.546 1322.59 275.361C1331.48 235.842 1350.5 200.796 1373.9 193.286C1411.81 180.244 1448.03 160.751 1460.75 139.625C1466.71 125.213 1591.35 224.516 1739.68 365.956C1871.58 490.185 2023.42 649.879 2036.6 677.456" stroke="white" stroke-width="1.00132" stroke-miterlimit="10" stroke-linecap="round"/>
</g>
<g style="mix-blend-mode:overlay">
<path d="M2.16309 633.316C121.074 736.132 244.934 778.54 352.165 790.08C461.809 802.104 554.317 782.307 625.558 769.273C728.013 745.578 758.692 759.424 799.32 772.269C838.281 783.44 887.189 793.609 987.666 723.993C1082.05 659.317 1187.11 543.895 1242.26 453.037C1280.72 390.66 1302.22 335.473 1313.23 284.783C1321.86 247.151 1340.32 213.771 1363.05 206.59C1399.86 194.172 1435.02 175.606 1447.37 155.49C1453.16 141.758 1574.16 236.326 1718.22 371.036C1846.26 489.347 1993.7 641.441 2006.49 667.705" stroke="white" stroke-width="1.00132" stroke-miterlimit="10" stroke-linecap="round"/>
</g>
<g style="mix-blend-mode:overlay">
<path d="M31.2842 625.733C146.731 723.648 266.98 764.046 371.076 775.028C477.528 786.518 567.334 767.641 636.499 755.215C735.975 732.644 765.76 745.833 805.205 758.063C843.025 768.733 890.514 778.393 988.069 712.101C1079.73 650.495 1181.7 540.563 1235.25 454.048C1272.59 394.641 1293.46 342.08 1304.19 293.836C1312.57 257.994 1330.5 226.206 1352.55 219.37C1388.3 207.534 1422.43 189.822 1434.42 170.691C1440.04 157.616 1557.53 247.686 1697.34 375.977C1821.66 488.659 1964.79 633.505 1977.22 658.522" stroke="white" stroke-width="1.00132" stroke-miterlimit="10" stroke-linecap="round"/>
</g>
<g style="mix-blend-mode:overlay">
<path d="M59.5342 618.502C171.624 711.765 288.368 750.233 389.477 760.69C492.826 771.606 580.031 753.639 647.193 741.812C743.771 720.317 772.686 732.874 810.983 744.521C847.703 754.657 893.813 763.882 988.52 700.742C1077.51 642.066 1176.47 537.412 1228.49 454.976C1264.75 398.401 1285.02 348.335 1295.4 302.389C1303.52 268.254 1320.94 237.985 1342.35 231.468C1377.05 220.199 1410.18 203.357 1421.83 185.112C1427.29 172.661 1541.34 258.438 1677.08 380.624C1797.73 487.937 1936.74 625.889 1948.8 649.708" stroke="white" stroke-width="1.00132" stroke-miterlimit="10" stroke-linecap="round"/>
</g>
<g style="mix-blend-mode:overlay">
<path d="M86.9717 611.624C195.795 700.438 309.141 737.076 407.279 747.048C507.616 757.439 592.277 740.335 657.469 729.082C751.232 708.563 779.302 720.571 816.482 731.667C852.135 741.32 896.915 750.102 988.84 689.965C1075.24 634.088 1171.36 534.383 1221.84 455.903C1257.03 402.02 1276.7 354.343 1286.78 310.588C1294.68 278.07 1311.58 249.245 1332.37 243.04C1366.06 232.313 1398.23 216.267 1409.52 198.892C1414.82 187.032 1525.55 268.73 1657.38 385.096C1774.56 487.288 1909.47 618.699 1921.18 641.36" stroke="white" stroke-width="1.00132" stroke-miterlimit="10" stroke-linecap="round"/>
</g>
<g style="mix-blend-mode:overlay">
<path d="M113.613 605.066C219.236 689.652 329.307 724.575 424.588 734.039C522.004 743.937 604.194 727.645 667.531 716.926C758.569 697.425 785.818 708.825 821.915 719.388C856.534 728.581 899.993 736.944 989.267 679.672C1073.15 626.454 1166.47 531.501 1215.47 456.755C1249.64 405.442 1268.74 360.038 1278.52 318.36C1286.19 287.393 1302.61 259.939 1322.78 254.029C1355.49 243.811 1386.72 228.537 1397.7 211.982C1402.84 200.689 1510.35 278.463 1638.32 389.314C1752.08 486.656 1883.07 611.738 1894.44 633.39" stroke="white" stroke-width="1.00132" stroke-miterlimit="10" stroke-linecap="round"/>
</g>
<g style="mix-blend-mode:overlay">
<path d="M139.476 598.828C242.07 679.385 348.891 712.617 441.398 721.654C535.973 731.084 615.775 715.564 677.225 705.353C765.604 686.788 792.065 697.638 827.111 707.701C860.721 716.458 902.915 724.42 989.62 669.88C1071.05 619.199 1161.66 528.76 1209.23 457.576C1242.41 408.709 1260.94 365.463 1270.46 325.772C1277.89 296.282 1293.83 270.133 1313.42 264.502C1345.18 254.768 1375.51 240.225 1386.16 224.466C1391.16 213.706 1495.53 287.803 1619.76 393.352C1730.22 486.048 1857.39 605.222 1868.45 625.798" stroke="white" stroke-width="1.00132" stroke-miterlimit="10" stroke-linecap="round"/>
</g>
<g style="mix-blend-mode:overlay">
<path d="M164.591 592.887C264.181 669.611 367.908 701.226 457.715 709.861C549.54 718.84 627.011 704.066 686.705 694.34C772.514 676.653 798.204 686.953 832.224 696.573C864.857 704.912 905.821 712.495 989.965 660.55C1069.04 612.281 1157 526.16 1203.19 458.366C1235.39 411.821 1253.4 370.635 1262.63 332.79C1269.85 304.704 1285.32 279.803 1304.34 274.443C1335.17 265.168 1364.61 251.314 1374.92 236.303C1379.77 226.06 1481.11 296.628 1601.73 397.17C1708.96 485.45 1832.43 598.944 1843.15 618.544" stroke="white" stroke-width="1.00132" stroke-miterlimit="10" stroke-linecap="round"/>
</g>
<g style="mix-blend-mode:overlay">
<path d="M188.967 587.223C285.652 660.27 386.358 690.433 473.555 698.632C562.705 707.176 637.919 693.108 695.847 683.858C779.154 667.017 804.097 676.857 837.132 685.984C868.805 693.921 908.537 701.152 990.276 651.677C1067.04 605.715 1152.44 523.639 1197.28 459.112C1228.56 414.791 1246.04 375.559 1254.99 339.561C1262 312.812 1277.03 289.093 1295.49 283.988C1325.43 275.164 1354.01 261.967 1364.06 247.669C1368.76 237.91 1467.14 305.122 1584.25 400.855C1688.38 484.916 1808.21 593.017 1818.64 611.69" stroke="white" stroke-width="1.00132" stroke-miterlimit="10" stroke-linecap="round"/>
</g>
<g style="mix-blend-mode:overlay">
<path d="M212.671 581.831C306.54 651.423 404.317 680.125 488.969 687.938C575.518 696.08 648.548 682.677 704.827 673.854C785.704 657.817 809.884 667.19 841.992 675.882C872.753 683.441 911.362 690.327 990.679 643.207C1065.21 599.428 1148.12 521.309 1191.66 459.818C1222.02 417.599 1238.99 380.205 1247.68 345.955C1254.49 320.512 1269.08 297.892 1287 293.033C1316.07 284.62 1343.82 272.055 1353.57 258.438C1358.14 249.147 1453.7 313.158 1567.36 404.335C1668.43 484.408 1784.86 587.363 1794.92 605.133" stroke="white" stroke-width="1.00132" stroke-miterlimit="10" stroke-linecap="round"/>
</g>
<g style="mix-blend-mode:overlay">
<path d="M235.651 576.693C326.755 642.977 421.716 670.316 503.898 677.744C587.935 685.5 658.832 672.737 713.428 664.341C791.958 649.059 815.464 657.988 846.603 666.27C876.462 673.468 913.955 680.026 990.958 635.155C1063.32 593.453 1143.81 519.051 1186.08 460.491C1215.56 420.274 1232.05 384.71 1240.48 352.053C1247.09 327.791 1261.25 306.279 1278.66 301.65C1306.87 293.64 1333.81 281.673 1343.28 268.705C1347.71 259.857 1440.45 320.815 1550.83 407.65C1648.97 483.915 1761.96 581.954 1771.77 598.886" stroke="white" stroke-width="1.00132" stroke-miterlimit="10" stroke-linecap="round"/>
</g>
<g style="mix-blend-mode:overlay">
<path d="M257.927 571.809C346.412 634.925 438.574 660.968 518.368 668.043C599.951 675.429 668.788 663.274 721.792 655.272C798.032 640.728 820.857 649.231 851.085 657.11C880.074 663.972 916.474 670.242 991.237 627.481C1061.49 587.765 1139.64 516.909 1180.67 461.131C1209.3 422.843 1225.3 388.962 1233.49 357.864C1239.91 334.751 1253.66 314.265 1270.56 309.858C1297.95 302.233 1324.1 290.833 1333.29 278.48C1337.6 270.051 1427.64 328.111 1534.81 410.81C1630.09 483.439 1739.78 576.816 1749.31 592.936" stroke="white" stroke-width="1.00132" stroke-miterlimit="10" stroke-linecap="round"/>
</g>
<g style="mix-blend-mode:overlay">
<path d="M279.586 567.147C365.494 627.267 454.973 652.062 532.444 658.801C611.646 665.835 678.48 654.262 729.941 646.646C803.957 632.783 826.117 640.9 855.467 648.394C883.619 654.96 918.953 660.869 991.54 620.168C1059.74 582.348 1135.62 514.865 1175.46 461.763C1203.25 425.297 1218.78 393.025 1226.74 363.404C1232.96 341.399 1246.32 321.89 1262.72 317.688C1289.32 310.424 1314.71 299.574 1323.63 287.812C1327.82 279.777 1415.23 335.071 1519.28 413.839C1611.78 483.012 1718.28 571.932 1727.53 587.289" stroke="white" stroke-width="1.00132" stroke-miterlimit="10" stroke-linecap="round"/>
</g>
<g style="mix-blend-mode:overlay">
<path d="M300.622 562.715C384.019 619.963 470.895 643.584 546.101 650.002C623.006 656.699 687.886 645.677 737.854 638.421C809.719 625.224 831.231 632.939 859.727 640.063C887.058 646.284 921.358 651.947 991.869 613.183C1058.09 577.168 1131.75 512.895 1170.43 462.304C1197.41 427.57 1212.49 396.841 1220.21 368.631C1226.26 347.678 1239.22 329.088 1255.15 325.131C1280.97 318.213 1305.63 307.896 1314.29 296.676C1318.35 289.027 1403.22 341.694 1504.23 416.703C1594.04 482.577 1697.45 567.27 1706.42 581.896" stroke="white" stroke-width="1.00132" stroke-miterlimit="10" stroke-linecap="round"/>
</g>
<g style="mix-blend-mode:overlay">
<path d="M321.01 558.488C401.985 613.011 486.326 635.508 559.348 641.622C634.037 648 697.005 637.518 745.511 630.591C815.275 618.026 836.172 625.371 863.831 632.175C890.366 638.101 923.672 643.494 992.09 606.576C1056.38 572.277 1127.9 511.065 1165.46 462.887C1191.65 429.81 1206.29 400.51 1213.79 373.671C1219.66 353.71 1232.24 336.015 1247.71 332.206C1272.78 325.64 1296.71 315.791 1305.16 305.122C1309.11 297.841 1391.5 347.99 1489.57 419.428C1576.76 482.174 1677.15 562.83 1685.86 576.758" stroke="white" stroke-width="1.00132" stroke-miterlimit="10" stroke-linecap="round"/>
</g>
<g style="mix-blend-mode:overlay">
<path d="M340.863 554.467C419.475 606.396 501.362 627.818 572.25 633.645C644.739 639.718 705.901 629.714 752.996 623.139C820.733 611.164 841.014 618.157 867.902 624.649C893.665 630.288 926.003 635.426 992.426 600.265C1054.8 567.599 1124.28 509.301 1160.75 463.413C1186.19 431.912 1200.39 404.039 1207.67 378.448C1213.36 359.439 1225.59 342.589 1240.6 338.962C1264.93 332.683 1288.2 323.31 1296.34 313.149C1300.17 306.214 1380.17 353.981 1475.38 422.014C1560.03 481.765 1657.5 558.587 1665.96 571.85" stroke="white" stroke-width="1.00132" stroke-miterlimit="10" stroke-linecap="round"/>
</g>
<g style="mix-blend-mode:overlay">
<path d="M360.103 550.633C436.433 600.092 515.931 620.487 584.759 626.036C655.139 631.781 714.512 622.301 760.236 616.031C826.003 604.63 845.693 611.295 871.768 617.475C896.777 622.851 928.17 627.735 992.665 594.256C1053.26 563.141 1120.7 507.618 1156.08 463.921C1180.77 433.914 1194.56 407.371 1201.63 383.002C1207.17 364.897 1219.03 348.843 1233.64 345.387C1257.27 339.412 1279.83 330.483 1287.76 320.765C1291.48 314.199 1369.14 359.652 1461.59 424.451C1543.78 481.353 1638.4 554.515 1646.62 567.147" stroke="white" stroke-width="1.00132" stroke-miterlimit="10" stroke-linecap="round"/>
</g>
<g style="mix-blend-mode:overlay">
<path d="M378.79 546.981C452.888 594.084 530.071 613.519 596.897 618.797C665.225 624.312 722.874 615.235 767.269 609.268C831.115 598.409 850.231 604.754 875.551 610.638C899.829 615.76 930.311 620.414 992.918 588.527C1051.75 558.898 1117.2 506.017 1151.57 464.397C1175.54 435.826 1188.94 410.539 1195.8 387.336C1201.18 370.1 1212.69 354.801 1226.84 351.51C1249.78 345.822 1271.69 337.319 1279.37 328.102C1282.97 321.807 1358.38 365.135 1448.13 426.847C1527.93 481.017 1619.79 550.723 1627.77 562.756" stroke="white" stroke-width="1.00132" stroke-miterlimit="10" stroke-linecap="round"/>
</g>
<g style="mix-blend-mode:overlay">
<path d="M396.929 543.51C468.876 588.372 543.844 606.872 608.683 611.903C675.016 617.156 730.975 608.514 774.081 602.826C836.073 592.492 854.63 598.533 879.212 604.139C902.784 609.006 932.38 613.446 993.165 583.07C1050.29 554.853 1113.82 504.491 1147.2 464.882C1170.47 437.666 1183.48 413.585 1190.15 391.49C1195.36 375.075 1206.56 360.507 1220.28 357.371C1242.55 351.954 1263.78 343.854 1271.29 335.071C1274.8 329.08 1348 370.364 1435.14 429.113C1512.61 480.739 1601.8 547.097 1609.55 558.554" stroke="white" stroke-width="1.00132" stroke-miterlimit="10" stroke-linecap="round"/>
</g>
<g style="mix-blend-mode:overlay">
<path d="M414.575 540.201C484.421 582.922 557.173 600.543 620.166 605.336C684.57 610.335 738.904 602.111 780.754 596.694C840.94 586.845 858.956 592.59 882.815 597.941C905.706 602.579 934.44 606.806 993.452 577.882C1048.91 551.003 1110.61 503.046 1143 465.291C1165.6 439.372 1178.22 416.44 1184.69 395.396C1189.76 379.752 1200.61 365.849 1213.95 362.902C1235.57 357.74 1256.22 350.025 1263.48 341.661C1266.88 335.916 1337.96 375.255 1422.55 431.23C1497.76 480.393 1584.36 543.591 1591.88 554.499" stroke="white" stroke-width="1.00132" stroke-miterlimit="10" stroke-linecap="round"/>
</g>
<g style="mix-blend-mode:overlay">
<path d="M431.639 537.05C499.457 577.734 570.091 594.502 631.246 599.082C693.771 603.843 746.529 596.004 787.189 590.875C845.618 581.493 863.109 586.976 886.278 592.057C908.496 596.48 936.394 600.502 993.69 572.958C1047.53 547.358 1107.43 501.683 1138.88 465.735C1160.82 441.046 1173.08 419.206 1179.36 399.163C1184.29 384.267 1194.82 371.061 1207.77 368.213C1228.76 363.288 1248.81 355.951 1255.86 347.989C1259.14 342.556 1328.16 379.999 1410.3 433.29C1483.34 480.073 1567.39 540.3 1574.69 550.658" stroke="white" stroke-width="1.00132" stroke-miterlimit="10" stroke-linecap="round"/>
</g>
<g style="mix-blend-mode:overlay">
<path d="M448.227 534.045C514.067 572.793 582.641 588.781 642.015 593.14C702.75 597.678 753.941 590.21 793.386 585.302C850.117 576.372 867.098 581.592 889.595 586.434C911.164 590.645 938.249 594.478 993.88 568.238C1046.15 543.862 1104.3 500.362 1134.84 466.12C1156.18 442.605 1168.04 421.799 1174.13 402.717C1178.91 388.534 1189.15 375.952 1201.71 373.243C1222.1 368.565 1241.56 361.564 1248.4 353.98C1251.6 348.81 1318.6 384.455 1398.35 435.235C1469.24 479.827 1550.87 537.148 1557.95 547.046" stroke="white" stroke-width="1.00132" stroke-miterlimit="10" stroke-linecap="round"/>
</g>
<g style="mix-blend-mode:overlay">
<path d="M464.362 531.182C528.283 568.116 594.862 583.316 652.504 587.453C711.442 591.77 761.171 584.662 799.467 579.984C854.54 571.481 871.029 576.454 892.869 581.059C913.815 585.072 940.104 588.725 994.117 563.733C1044.86 540.514 1101.32 499.09 1130.97 466.482C1151.65 444.092 1163.21 424.279 1169.13 406.099C1173.76 392.589 1183.69 380.606 1195.9 378.029C1215.7 373.572 1234.59 366.908 1241.23 359.685C1244.34 354.761 1309.35 388.699 1386.81 437.058C1455.64 479.523 1534.89 534.112 1541.76 543.542" stroke="white" stroke-width="1.00132" stroke-miterlimit="10" stroke-linecap="round"/>
</g>
<g style="mix-blend-mode:overlay">
<path d="M480.006 528.465C542.071 563.61 606.706 578.113 662.673 582.052C719.896 586.156 768.172 579.393 805.353 574.945C858.825 566.836 874.837 571.571 896.038 575.962C916.368 579.787 941.901 583.259 994.339 559.465C1043.58 537.354 1098.42 497.909 1127.2 466.835C1147.28 445.495 1158.5 426.618 1164.24 409.333C1168.75 396.464 1178.39 385.055 1190.24 382.601C1209.46 378.35 1227.8 372.005 1234.25 365.127C1237.27 360.433 1300.42 392.762 1375.59 438.815C1442.41 479.261 1519.35 531.248 1526.03 540.227" stroke="white" stroke-width="1.00132" stroke-miterlimit="10" stroke-linecap="round"/>
</g>
<g style="mix-blend-mode:overlay">
<path d="M495.197 525.872C555.449 559.342 618.212 573.155 672.546 576.906C728.102 580.821 774.976 574.378 811.072 570.135C862.985 562.42 878.522 566.926 899.115 571.112C918.813 574.748 943.64 578.055 994.552 555.394C1042.39 534.334 1095.6 496.76 1123.55 467.18C1143.03 446.874 1153.92 428.9 1159.51 412.411C1163.88 400.157 1173.25 389.29 1184.74 386.967C1203.4 382.921 1221.21 376.88 1227.47 370.331C1230.41 365.858 1291.71 396.652 1364.7 440.505C1429.58 479.023 1504.27 528.539 1510.79 537.091" stroke="white" stroke-width="1.00132" stroke-miterlimit="10" stroke-linecap="round"/>
</g>
<g style="mix-blend-mode:overlay">
<path d="M509.947 523.401C568.451 555.279 629.375 568.428 682.133 572.006C736.065 575.733 781.576 569.593 816.622 565.555C867.024 558.168 882.11 562.502 902.095 566.483C921.268 569.946 945.324 573.098 994.758 551.52C1041.2 531.461 1092.86 495.709 1120 467.5C1138.92 448.163 1149.49 431.05 1154.91 415.341C1159.15 403.67 1168.25 393.32 1179.42 391.096C1197.52 387.247 1214.82 381.485 1220.89 375.247C1223.75 370.996 1283.27 400.321 1354.12 442.081C1417.11 478.769 1489.63 525.929 1495.93 534.071" stroke="white" stroke-width="1.00132" stroke-miterlimit="10" stroke-linecap="round"/>
</g>
<g style="mix-blend-mode:overlay">
<path d="M524.27 521.029C581.066 551.397 640.217 563.914 691.432 567.32C743.804 570.874 787.986 565.03 822.006 561.181C870.939 554.18 885.59 558.275 905 562.067C923.607 565.35 946.965 568.37 994.955 547.811C1040.05 528.712 1090.21 494.626 1116.55 467.795C1134.92 449.378 1145.19 433.078 1150.45 418.123C1154.55 407.002 1163.39 397.153 1174.25 395.027C1191.83 391.359 1208.61 385.876 1214.51 379.934C1217.28 375.879 1275.07 403.809 1343.86 443.591C1405.01 478.523 1475.42 523.442 1481.54 531.199" stroke="white" stroke-width="1.00132" stroke-miterlimit="10" stroke-linecap="round"/>
</g>
<g style="mix-blend-mode:overlay">
<path d="M538.172 518.804C593.31 547.72 650.746 559.653 700.468 562.895C751.305 566.277 794.206 560.712 827.241 557.043C874.746 550.379 888.97 554.277 907.806 557.864C925.863 561.008 948.557 563.864 995.151 544.289C1038.92 526.093 1087.62 493.632 1113.2 468.082C1131.03 450.542 1141.01 435.014 1146.11 420.774C1150.11 410.186 1158.68 400.797 1169.21 398.778C1186.28 395.289 1202.58 390.061 1208.31 384.406C1210.99 380.54 1267.1 407.141 1333.88 445.027C1393.26 478.3 1461.62 521.078 1467.55 528.465" stroke="white" stroke-width="1.00132" stroke-miterlimit="10" stroke-linecap="round"/>
</g>
<g style="mix-blend-mode:overlay">
<path d="M551.642 516.671C605.171 544.216 660.933 555.575 709.226 558.661C758.586 561.886 800.231 556.576 832.298 553.088C878.424 546.744 892.213 550.453 910.524 553.909C928.064 556.904 950.084 559.654 995.324 540.982C1037.82 523.656 1085.11 492.738 1109.93 468.403C1127.25 451.7 1136.93 436.91 1141.89 423.343C1145.77 413.264 1154.09 404.326 1164.31 402.406C1180.89 399.074 1196.71 394.1 1202.27 388.716C1204.88 385.039 1259.35 410.367 1324.19 446.447C1381.83 478.137 1448.2 518.871 1453.97 525.913" stroke="white" stroke-width="1.00132" stroke-miterlimit="10" stroke-linecap="round"/>
</g>
<g style="mix-blend-mode:overlay">
<path d="M564.773 514.644C616.744 540.908 670.88 551.684 717.745 554.631C765.669 557.7 806.099 552.645 837.239 549.32C882.019 543.28 895.43 546.809 913.183 550.084C930.214 552.94 951.594 555.534 995.513 537.773C1036.77 521.275 1082.68 491.81 1106.79 468.657C1123.6 452.742 1133 438.667 1137.81 425.74C1141.58 416.137 1149.66 407.626 1159.58 405.795C1175.67 402.627 1191.03 397.892 1196.43 392.762C1198.97 389.257 1251.85 413.379 1314.8 447.752C1370.77 477.931 1435.21 516.696 1440.8 523.434" stroke="white" stroke-width="1.00132" stroke-miterlimit="10" stroke-linecap="round"/>
</g>
</g>
</g>
</svg>
